<svg width="359" height="253" viewBox="0 0 359 253" fill="none" xmlns="http://www.w3.org/2000/svg">
<path d="M183.349 252.464C194.146 252.464 202.899 243.711 202.899 232.913C202.899 222.115 194.146 213.362 183.349 213.362C172.551 213.362 163.798 222.115 163.798 232.913C163.798 243.711 172.551 252.464 183.349 252.464Z" fill="#DEB887" fill-opacity="0.8"/>
<path d="M300.146 251.366C311.083 248.081 322.711 244.655 331.386 236.846C339.137 229.868 344.37 219.213 341.159 208.747C337.954 198.304 328.355 191.34 318.445 187.877C312.824 185.912 306.944 184.822 301.066 183.966C294.676 183.036 288.257 182.273 281.842 181.539C255.866 178.568 229.792 176.753 203.621 176.094C190.707 175.769 177.795 175.777 164.879 175.964C153.345 176.132 141.197 176.128 130.496 171.225C122.175 167.413 114.623 160.477 112.304 151.362C109.628 140.841 114.564 130.127 121.646 122.507C125.379 118.49 129.741 115.11 134.242 112.001C139.124 108.629 144.177 105.496 149.339 102.571C159.505 96.8128 170.135 91.9125 181.116 87.9208C186.533 85.951 192.03 84.2516 197.575 82.6839C202.258 81.36 206.955 80.0343 211.48 78.2307C220.228 74.7439 228.549 68.8377 230.774 59.155C232.882 49.9782 229.327 40.016 223.096 33.1986C215.886 25.3115 205.016 21.854 194.594 21.2946C182.894 20.6666 171.464 23.5948 160.467 27.3112C148.738 31.2749 137.262 35.8325 125.285 39.0432C113.408 42.2238 101.302 44.4742 89.0752 45.7741C83.09 46.4114 76.924 47.1311 70.9032 46.6431C65.8572 46.2342 60.837 44.7502 57.1182 41.169C53.9295 38.0983 52.03 33.8781 52.683 29.4246C52.8016 28.6157 54.0304 28.9596 53.9125 29.7636C53.1176 35.1848 56.8026 40.1803 61.3436 42.7392C66.5917 45.6967 72.978 45.7007 78.821 45.3625C91.4902 44.5973 104.074 42.7782 116.441 39.924C128.593 37.1484 140.311 33.1805 152.016 28.9418C163.133 24.9162 174.498 20.9872 186.375 20.1152C196.68 19.3587 207.52 20.86 216.497 26.2454C224.387 30.9785 230.189 38.8717 232.038 47.9293C233.844 56.7802 231.342 65.6889 224.643 71.8654C217.706 78.2604 208.194 80.9945 199.33 83.5126C188.088 86.7064 177.086 90.4397 166.437 95.287C155.643 100.187 145.291 106.007 135.496 112.682C126.041 119.144 116.71 127.274 113.72 138.801C112.327 144.17 112.584 149.865 114.915 154.936C116.987 159.446 120.4 163.239 124.376 166.165C133.863 173.146 145.819 174.579 157.278 174.722C170.148 174.882 183.019 174.447 195.893 174.659C222.13 175.089 248.314 176.686 274.444 179.45C280.991 180.143 287.531 180.909 294.062 181.748C299.936 182.503 305.83 183.253 311.606 184.593C321.875 186.977 331.868 191.56 338.251 200.267C341.083 204.041 342.838 208.514 343.328 213.208C343.775 218.105 342.576 223.013 340.362 227.37C335.46 237.014 326.279 243.148 316.53 247.178C311.307 249.336 305.891 250.972 300.485 252.595C299.697 252.832 299.36 251.601 300.146 251.366L300.146 251.366Z" fill="#F2F2F2"/>
<path d="M53.5064 39.7395C59.1399 39.7395 63.7068 35.1725 63.7068 29.5389C63.7068 23.9053 59.1399 19.3384 53.5064 19.3384C47.8729 19.3384 43.306 23.9053 43.306 29.5389C43.306 35.1725 47.8729 39.7395 53.5064 39.7395Z" fill="#F2F2F2"/>
<path d="M124.271 59.0784C129.905 59.0784 134.472 54.5114 134.472 48.8778C134.472 43.2442 129.905 38.6772 124.271 38.6772C118.638 38.6772 114.071 43.2442 114.071 48.8778C114.071 54.5114 118.638 59.0784 124.271 59.0784Z" fill="#F2F2F2"/>
<path d="M184.199 20.4011C189.832 20.4011 194.399 15.8342 194.399 10.2006C194.399 4.56695 189.832 0 184.199 0C178.565 0 173.998 4.56695 173.998 10.2006C173.998 15.8342 178.565 20.4011 184.199 20.4011Z" fill="#F2F2F2"/>
<path d="M221.6 63.7537C227.234 63.7537 231.8 59.1867 231.8 53.5531C231.8 47.9195 227.234 43.3525 221.6 43.3525C215.967 43.3525 211.4 47.9195 211.4 53.5531C211.4 59.1867 215.967 63.7537 221.6 63.7537Z" fill="#F2F2F2"/>
<path d="M171.023 113.906C176.657 113.906 181.223 109.339 181.223 103.705C181.223 98.0718 176.657 93.5049 171.023 93.5049C165.39 93.5049 160.823 98.0718 160.823 103.705C160.823 109.339 165.39 113.906 171.023 113.906Z" fill="#F2F2F2"/>
<path d="M106.846 138.133C112.479 138.133 117.046 133.566 117.046 127.932C117.046 122.298 112.479 117.731 106.846 117.731C101.212 117.731 96.6455 122.298 96.6455 127.932C96.6455 133.566 101.212 138.133 106.846 138.133Z" fill="#F2F2F2"/>
<path d="M174.848 175.96C180.482 175.96 185.049 171.393 185.049 165.759C185.049 160.126 180.482 155.559 174.848 155.559C169.215 155.559 164.648 160.126 164.648 165.759C164.648 171.393 169.215 175.96 174.848 175.96Z" fill="#F2F2F2"/>
<path d="M247.951 197.211C253.584 197.211 258.151 192.644 258.151 187.01C258.151 181.377 253.584 176.81 247.951 176.81C242.317 176.81 237.75 181.377 237.75 187.01C237.75 192.644 242.317 197.211 247.951 197.211Z" fill="#F2F2F2"/>
<path d="M333.379 192.535C339.013 192.535 343.579 187.968 343.579 182.335C343.579 176.701 339.013 172.134 333.379 172.134C327.746 172.134 323.179 176.701 323.179 182.335C323.179 187.968 327.746 192.535 333.379 192.535Z" fill="#F2F2F2"/>
<path d="M181.254 28.9028C150.699 29.1187 125.681 53.9494 125.247 84.5028C125.243 84.7849 125.241 86.7684 125.241 89.3626C125.241 93.1664 126.752 96.8143 129.442 99.504C132.131 102.194 135.779 103.705 139.583 103.705H139.583C141.468 103.705 143.335 103.333 145.077 102.611C146.819 101.889 148.401 100.83 149.734 99.4962C151.066 98.1622 152.123 96.5787 152.843 94.8362C153.564 93.0936 153.934 91.2262 153.932 89.3406C153.93 87.5759 153.93 86.3545 153.93 86.2795C153.929 81.5575 155.157 76.9166 157.493 72.8133C159.83 68.71 163.195 65.2856 167.256 62.877C171.317 60.4684 175.936 59.1586 180.657 59.0763C185.378 58.9941 190.04 60.1423 194.182 62.408C198.325 64.6737 201.807 67.9789 204.285 71.9984C206.763 76.0178 208.152 80.6132 208.316 85.3323C208.479 90.0515 207.411 94.7319 205.217 98.9132C203.023 103.094 199.778 106.633 195.802 109.18L195.807 109.186C195.807 109.186 175.394 122.327 169.171 140.355L169.176 140.356C168.082 144.049 167.528 147.881 167.53 151.733C167.53 153.316 167.623 167.171 167.803 178.415C167.866 182.295 169.452 185.994 172.218 188.716C174.984 191.437 178.709 192.961 182.59 192.96H182.59C184.539 192.96 186.47 192.575 188.27 191.826C190.07 191.077 191.704 189.979 193.079 188.596C194.453 187.213 195.54 185.572 196.278 183.767C197.016 181.963 197.39 180.03 197.377 178.08C197.315 167.782 197.281 155.791 197.281 154.921C197.281 143.851 207.96 132.822 216.731 125.629C226.832 117.347 234.101 106.06 237.02 93.3279C237.666 90.7066 238.023 88.0223 238.083 85.3232C238.083 77.8795 236.61 70.5093 233.749 63.6374C230.888 56.7655 226.695 50.5276 221.413 45.2831C216.131 40.0386 209.863 35.8913 202.97 33.08C196.078 30.2687 188.698 28.8491 181.254 28.9028Z" fill="#DEB887" fill-opacity="0.8"/>
<path d="M358.494 253H0.50606C0.372099 253 0.24376 252.946 0.149172 252.851C0.0545843 252.756 0.00146484 252.628 0.00146484 252.494C0.00146484 252.36 0.0545843 252.231 0.149172 252.137C0.24376 252.042 0.372099 251.988 0.50606 251.988H358.494C358.628 251.988 358.757 252.041 358.852 252.136C358.947 252.231 359 252.36 359 252.494C359 252.628 358.947 252.757 358.852 252.852C358.757 252.947 358.628 253 358.494 253Z" fill="#3F3D56"/>
<path d="M267.1 116.03C274.142 116.03 279.851 110.321 279.851 103.279C279.851 96.237 274.142 90.5283 267.1 90.5283C260.058 90.5283 254.35 96.237 254.35 103.279C254.35 110.321 260.058 116.03 267.1 116.03Z" fill="#2F2E41"/>
<path d="M243.539 247.418H238.329L235.85 227.32H243.54L243.539 247.418Z" fill="#A0616A"/>
<path d="M234.606 245.929H244.655V252.256H228.279C228.279 251.426 228.443 250.603 228.761 249.835C229.079 249.067 229.545 248.37 230.132 247.782C230.72 247.195 231.417 246.729 232.185 246.411C232.953 246.093 233.776 245.929 234.606 245.929Z" fill="#2F2E41"/>
<path d="M283.915 247.418H278.705L276.226 227.32H283.917L283.915 247.418Z" fill="#A0616A"/>
<path d="M274.983 245.929H285.032V252.256H268.656C268.656 251.426 268.82 250.603 269.138 249.835C269.456 249.067 269.922 248.37 270.509 247.782C271.097 247.195 271.794 246.729 272.562 246.411C273.329 246.093 274.152 245.929 274.983 245.929Z" fill="#2F2E41"/>
<path d="M265.163 116.104C270.928 116.104 275.601 111.43 275.601 105.665C275.601 99.8998 270.928 95.2261 265.163 95.2261C259.397 95.2261 254.724 99.8998 254.724 105.665C254.724 111.43 259.397 116.104 265.163 116.104Z" fill="#A0616A"/>
<path d="M271.385 149.781L276.055 139.049C277.19 136.531 277.515 133.724 276.986 131.013C276.457 128.303 275.1 125.824 273.102 123.918C272.691 123.512 272.255 123.133 271.797 122.783C269.492 120.98 266.652 119.997 263.726 119.991C261.758 119.998 259.816 120.43 258.031 121.257C257.877 121.325 257.729 121.398 257.576 121.47C257.283 121.61 256.994 121.763 256.713 121.92C254.883 122.971 253.326 124.437 252.167 126.2C251.008 127.963 250.279 129.974 250.04 132.07L247.979 149.343C247.46 150.699 228.964 199.661 235.433 237.042C235.501 237.441 235.696 237.808 235.988 238.089C236.28 238.369 236.654 238.549 237.056 238.602L243.614 239.495C244.093 239.56 244.579 239.442 244.974 239.163C245.369 238.885 245.644 238.467 245.743 237.994L256.747 185.542C256.816 185.216 256.992 184.923 257.247 184.708C257.502 184.494 257.821 184.372 258.154 184.36C258.487 184.349 258.814 184.45 259.083 184.646C259.351 184.843 259.547 185.124 259.637 185.444L275.184 240.604C275.295 241.005 275.534 241.358 275.865 241.61C276.196 241.862 276.6 241.998 277.016 241.998C277.14 241.997 277.264 241.986 277.386 241.964L285.397 240.421C285.863 240.334 286.279 240.076 286.565 239.698C286.85 239.32 286.984 238.848 286.94 238.377C285.763 225.248 279.507 159.484 271.385 149.781Z" fill="#2F2E41"/>
<path d="M224.595 114.352C224.522 114.973 224.587 115.602 224.784 116.195C224.981 116.788 225.305 117.331 225.734 117.784C226.164 118.238 226.687 118.593 227.268 118.823C227.849 119.052 228.474 119.152 229.097 119.114L234.932 133.137L239.346 126.594L233.129 114.281C232.996 113.237 232.485 112.279 231.693 111.587C230.9 110.895 229.882 110.517 228.83 110.526C227.778 110.535 226.766 110.929 225.985 111.634C225.205 112.34 224.71 113.307 224.595 114.352L224.595 114.352Z" fill="#A0616A"/>
<path d="M264.584 163.9C265.204 163.826 265.801 163.617 266.332 163.287C266.862 162.957 267.314 162.515 267.656 161.992C267.997 161.469 268.22 160.877 268.308 160.259C268.396 159.64 268.347 159.01 268.165 158.412L280.442 149.47L273.051 146.702L262.526 155.618C261.542 155.99 260.729 156.71 260.24 157.642C259.752 158.574 259.622 159.652 259.876 160.673C260.13 161.694 260.749 162.586 261.617 163.181C262.485 163.776 263.54 164.032 264.584 163.9Z" fill="#A0616A"/>
<path d="M244.571 142.485C244.1 142.485 243.631 142.438 243.169 142.347C242.052 142.134 241.005 141.65 240.119 140.938C239.234 140.225 238.537 139.305 238.091 138.26L229.916 128.292C229.743 128.081 229.618 127.836 229.547 127.572C229.477 127.309 229.464 127.034 229.508 126.765C229.553 126.496 229.655 126.24 229.806 126.013C229.958 125.787 230.157 125.596 230.388 125.452L236.204 121.852C236.419 121.719 236.658 121.63 236.907 121.59C237.157 121.55 237.412 121.559 237.657 121.618C237.903 121.677 238.134 121.784 238.338 121.933C238.542 122.082 238.715 122.269 238.846 122.485L244.608 131.978L255.642 123.823C256.52 123.362 257.535 123.233 258.501 123.459C259.467 123.685 260.319 124.251 260.903 125.053C261.486 125.856 261.761 126.841 261.677 127.83C261.594 128.818 261.158 129.744 260.449 130.437L249.436 140.483C248.142 141.766 246.393 142.486 244.571 142.485Z" fill="#2F2E41"/>
<path d="M274.386 157.477C274.371 157.477 274.356 157.477 274.341 157.477C274.073 157.47 273.809 157.407 273.566 157.292C273.324 157.177 273.108 157.013 272.934 156.809L267.763 150.777C267.587 150.571 267.456 150.331 267.38 150.071C267.304 149.811 267.283 149.539 267.32 149.271C267.357 149.002 267.451 148.745 267.594 148.516C267.738 148.287 267.929 148.091 268.154 147.941L277.836 141.485L269.065 130.94C268.555 130.089 268.367 129.083 268.537 128.106C268.708 127.128 269.224 126.245 269.991 125.617C270.759 124.989 271.727 124.657 272.719 124.684C273.71 124.711 274.659 125.093 275.392 125.762L286.053 136.18C286.892 136.947 287.533 137.905 287.92 138.974C288.307 140.042 288.428 141.189 288.275 142.315C288.121 143.441 287.697 144.513 287.038 145.439C286.379 146.365 285.505 147.117 284.491 147.63L275.778 156.876C275.599 157.066 275.383 157.217 275.144 157.32C274.904 157.423 274.646 157.477 274.386 157.477Z" fill="#2F2E41"/>
<path d="M262.508 135.248C262.425 135.248 262.343 135.243 262.26 135.233C261.9 135.189 261.56 135.043 261.281 134.812C261.001 134.58 260.794 134.274 260.683 133.928L256.798 122.015C256.7 121.714 256.715 121.388 256.84 121.097C256.964 120.806 257.19 120.57 257.475 120.432L257.601 120.373C257.716 120.318 257.829 120.265 257.944 120.213C259.756 119.373 261.729 118.934 263.726 118.928C266.319 118.933 268.854 119.695 271.02 121.12C271.31 121.313 271.513 121.613 271.585 121.954C271.656 122.296 271.591 122.651 271.403 122.945L264.114 134.365C263.943 134.636 263.706 134.859 263.425 135.014C263.144 135.168 262.829 135.249 262.508 135.248Z" fill="#E6E6E6"/>
<path d="M277.153 97.5863C279.457 97.5863 281.325 95.7183 281.325 93.414C281.325 91.1097 279.457 89.2417 277.153 89.2417C274.849 89.2417 272.981 91.1097 272.981 93.414C272.981 95.7183 274.849 97.5863 277.153 97.5863Z" fill="#2F2E41"/>
<path d="M262.85 88.8281C259.919 88.8281 257.109 89.9924 255.036 92.0648C252.964 94.1372 251.8 96.9479 251.8 99.8787V104.554H257.55L260.3 99.8787L261.125 104.554H278.576L273.901 99.8787C273.901 96.9479 272.736 94.1372 270.664 92.0648C268.592 89.9924 265.781 88.8281 262.85 88.8281Z" fill="#2F2E41"/>
<path d="M279.297 90.5563C279.759 89.1135 280.714 87.8796 281.995 87.0715C283.276 86.2634 284.801 85.9329 286.302 86.1379C288.961 86.5824 291.063 88.7197 292.316 91.1069C293.568 93.494 294.147 96.1657 294.989 98.7267C295.831 101.288 297.025 103.862 299.151 105.52C301.277 107.178 304.539 107.628 306.627 105.922C306.388 107.7 305.597 109.357 304.365 110.66C303.133 111.963 301.523 112.845 299.761 113.183C298 113.52 296.178 113.296 294.551 112.54C292.925 111.785 291.577 110.538 290.699 108.975C289.597 107.014 289.312 104.717 288.986 102.493C288.659 100.268 288.235 97.9661 286.919 96.1425C285.604 94.3189 283.142 93.1278 281.052 93.9584L279.297 90.5563Z" fill="#2F2E41"/>
<path d="M143.632 96.9216C139.829 96.9212 136.181 95.4099 133.492 92.7202C130.802 90.0304 129.291 86.3825 129.291 82.5788C129.29 79.9845 129.292 78.001 129.296 77.719C129.417 68.8332 131.655 60.1043 135.824 52.2563C128.974 61.6336 125.208 72.9078 125.046 84.5193C125.042 84.8014 125.04 86.7849 125.041 89.3791C125.041 93.1829 126.552 96.8308 129.241 99.5205C131.931 102.21 135.579 103.722 139.382 103.722C142.508 103.721 145.548 102.699 148.04 100.813C150.532 98.9266 152.34 96.2783 153.19 93.2704C150.564 95.6254 147.16 96.9259 143.632 96.9216Z" fill="#3F3D56"/>
<path d="M182.226 59.1246C186.624 59.3346 190.904 60.6087 194.701 62.8376C198.497 65.0664 201.696 68.1833 204.022 71.9208C206.349 75.6582 207.734 79.9044 208.058 84.2949C208.382 88.6853 207.635 93.0888 205.882 97.1272C208.418 94.1498 210.281 90.6607 211.346 86.8978C212.41 83.1349 212.651 79.1867 212.051 75.3224C211.451 71.4581 210.026 67.7685 207.871 64.5052C205.716 61.2419 202.883 58.4816 199.565 56.4124C196.246 54.3433 192.521 53.014 188.643 52.5152C184.764 52.0163 180.823 52.3597 177.09 53.5219C173.356 54.684 169.917 56.6376 167.006 59.2495C164.096 61.8614 161.783 65.0701 160.225 68.6569C162.917 65.4894 166.302 62.9826 170.116 61.3299C173.931 59.6772 178.074 58.9227 182.226 59.1246Z" fill="#3F3D56"/>
<path d="M186.639 186.177C182.759 186.177 179.034 184.653 176.267 181.932C173.501 179.211 171.916 175.511 171.853 171.631C171.673 160.387 171.58 146.533 171.58 144.949C171.577 141.097 172.132 137.265 173.226 133.572L173.221 133.571C173.867 131.717 174.647 129.913 175.556 128.173C172.767 131.889 170.547 136.001 168.97 140.371L168.976 140.373C167.881 144.066 167.327 147.898 167.329 151.75C167.329 153.333 167.423 167.187 167.602 178.432C167.665 182.311 169.251 186.011 172.017 188.732C174.783 191.453 178.509 192.978 182.389 192.977C185.588 192.976 188.701 191.938 191.261 190.019C193.82 188.1 195.688 185.402 196.585 182.331C193.866 184.81 190.318 186.182 186.639 186.177Z" fill="#3F3D56"/>
<path d="M53.7819 247.612L58.9922 247.612L61.4713 227.513L53.7806 227.514L53.7819 247.612Z" fill="#FFB8B8"/>
<path d="M69.0415 252.45L52.6654 252.451L52.6651 246.124L62.7141 246.123C64.3921 246.123 66.0015 246.79 67.1881 247.976C68.3747 249.163 69.0414 250.772 69.0415 252.45L69.0415 252.45Z" fill="#2F2E41"/>
<path d="M35.0812 247.612L40.2915 247.612L42.7706 227.513L35.08 227.514L35.0812 247.612Z" fill="#FFB8B8"/>
<path d="M50.3408 252.45L33.9647 252.451L33.9644 246.124L44.0134 246.123C45.6915 246.123 47.3008 246.79 48.4874 247.976C49.6741 249.163 50.3407 250.772 50.3408 252.45L50.3408 252.45Z" fill="#2F2E41"/>
<path d="M39.6346 241.431L34.545 241.163C34.2826 241.149 34.0255 241.083 33.7886 240.97C33.5518 240.856 33.3399 240.696 33.1652 240.5C32.9905 240.303 32.8566 240.074 32.771 239.826C32.6855 239.577 32.6502 239.314 32.6671 239.052L38.7502 171.7L66.7634 179.26L69.4623 178.523L61.0222 238.147C60.9503 238.596 60.7276 239.007 60.3908 239.311C60.054 239.616 59.6234 239.797 59.1699 239.824L53.6834 240.08C53.4091 240.095 53.1346 240.053 52.8773 239.957C52.6199 239.86 52.3853 239.712 52.1884 239.52C51.9914 239.329 51.8363 239.098 51.7328 238.844C51.6294 238.589 51.5799 238.316 51.5875 238.041L52.5816 202.256C52.5862 202.091 52.5288 201.929 52.4204 201.804C52.3121 201.679 52.1609 201.599 51.9964 201.58C51.832 201.56 51.6664 201.603 51.5321 201.7C51.3979 201.797 51.3048 201.941 51.2712 202.103L41.6842 239.85C41.5937 240.298 41.3506 240.701 40.9965 240.99C40.6424 241.278 40.1991 241.435 39.7422 241.434C39.7065 241.434 39.6707 241.433 39.6346 241.431Z" fill="#2F2E41"/>
<path d="M54.7174 116.592C60.4826 116.592 65.1562 111.919 65.1562 106.153C65.1562 100.388 60.4826 95.7144 54.7174 95.7144C48.9522 95.7144 44.2786 100.388 44.2786 106.153C44.2786 111.919 48.9522 116.592 54.7174 116.592Z" fill="#FFB8B8"/>
<path d="M37.3374 136.822L38.4852 161.587L38.9001 170.597C38.9166 170.989 39.0498 171.368 39.2826 171.684C39.5153 172 39.8371 172.24 40.2067 172.372L67.1255 182.123C67.3429 182.204 67.5733 182.245 67.8053 182.242C68.0705 182.244 68.3332 182.192 68.5777 182.089C68.8222 181.987 69.0436 181.836 69.2286 181.646C69.4136 181.456 69.5585 181.231 69.6545 180.984C69.7505 180.736 69.7957 180.472 69.7875 180.207L68.6839 135.679C68.6114 132.026 67.2666 128.512 64.8813 125.744C62.4961 122.976 59.2198 121.127 55.6173 120.515C55.357 120.476 55.0921 120.436 54.8271 120.401C52.5933 120.123 50.3259 120.339 48.1843 121.032C46.0428 121.725 44.0791 122.88 42.4316 124.413C40.7256 125.982 39.385 127.907 38.5048 130.051C37.6245 132.196 37.226 134.507 37.3374 136.822L37.3374 136.822Z" fill="#CCCCCC"/>
<path d="M79.9845 177.182C79.3478 176.984 78.7662 176.641 78.2859 176.178C77.8056 175.716 77.4401 175.148 77.2184 174.519C76.9967 173.89 76.9251 173.219 77.0092 172.557C77.0932 171.896 77.3307 171.263 77.7027 170.71L68.5742 158.572L76.4516 158.084L83.9125 169.686C84.7112 170.303 85.267 171.182 85.4824 172.169C85.6978 173.155 85.559 174.186 85.0904 175.08C84.6218 175.974 83.8532 176.675 82.9196 177.06C81.986 177.444 80.9469 177.487 79.9845 177.182H79.9845Z" fill="#FFB8B8"/>
<path d="M73.5665 168.514C73.3246 168.415 73.1046 168.27 72.9193 168.087C72.7339 167.903 72.5868 167.684 72.4865 167.443L58.7337 134.676C58.4639 134.035 58.3231 133.346 58.3194 132.65C58.3157 131.954 58.4493 131.264 58.7123 130.62C58.9754 129.976 59.3629 129.39 59.8526 128.895C60.3423 128.401 60.9247 128.007 61.5664 127.738C62.2082 127.469 62.8967 127.328 63.5927 127.325C64.2886 127.322 64.9784 127.456 65.6225 127.72C66.2667 127.983 66.8526 128.371 67.3467 128.861C67.8409 129.351 68.2336 129.934 68.5024 130.576L82.2552 163.343C82.4584 163.829 82.4607 164.376 82.2615 164.863C82.0622 165.351 81.6778 165.739 81.1924 165.944L75.0869 168.506C74.8465 168.608 74.5884 168.661 74.3274 168.662C74.0664 168.664 73.8078 168.613 73.5664 168.514L73.5665 168.514Z" fill="#CCCCCC"/>
<path d="M51.3612 167.358L64.5703 142.065C64.8251 141.579 65.2623 141.213 65.7862 141.049C66.3101 140.884 66.8778 140.934 67.3648 141.188L86.5379 151.202C87.0243 151.456 87.3898 151.894 87.5542 152.418C87.7186 152.941 87.6685 153.509 87.4149 153.996L74.2057 179.289C73.951 179.775 73.5137 180.141 72.9898 180.305C72.4659 180.47 71.8982 180.419 71.4112 180.166L52.2382 170.152C51.7518 169.897 51.3863 169.46 51.2218 168.936C51.0574 168.412 51.1075 167.845 51.3612 167.358Z" fill="#3F3D56"/>
<path d="M60.2197 155.802C59.9848 155.178 59.6074 154.618 59.1176 154.166C58.6277 153.714 58.0389 153.382 57.3983 153.198C56.7576 153.014 56.0827 152.982 55.4275 153.105C54.7724 153.228 54.155 153.503 53.6247 153.907L40.9684 145.511L40.9469 153.403L52.9688 160.166C53.6324 160.927 54.5428 161.43 55.5401 161.587C56.5375 161.744 57.5582 161.544 58.4233 161.024C59.2883 160.503 59.9425 159.694 60.2709 158.74C60.5994 157.785 60.5813 156.745 60.2197 155.802Z" fill="#FFB8B8"/>
<path d="M44.2179 157.577L33.8744 149.384C32.7554 149.008 31.7444 148.366 30.928 147.514C30.1116 146.661 29.5142 145.624 29.1872 144.489C28.8602 143.355 28.8134 142.159 29.0506 141.002C29.2878 139.846 29.8021 138.765 30.5493 137.851L39.941 125.542C40.5936 124.745 41.5114 124.209 42.5267 124.032C43.542 123.856 44.5869 124.05 45.4704 124.581C46.354 125.111 47.0171 125.942 47.3386 126.921C47.66 127.9 47.6184 128.962 47.2213 129.913L39.7904 142.069L50.7107 147.249C50.9647 147.369 51.1902 147.542 51.3723 147.756C51.5545 147.97 51.6891 148.22 51.7674 148.49C51.8456 148.76 51.8657 149.044 51.8263 149.322C51.7869 149.6 51.6889 149.867 51.5387 150.105L47.1306 157.081C46.9816 157.317 46.7848 157.518 46.5529 157.673C46.3211 157.827 46.0593 157.931 45.7847 157.978C45.7738 157.98 45.7628 157.982 45.7518 157.984C45.482 158.024 45.2066 158.009 44.9428 157.939C44.6789 157.87 44.4322 157.746 44.2179 157.577Z" fill="#CCCCCC"/>
<path d="M46.8295 113.143C46.7847 113.012 46.7705 112.873 46.788 112.735C46.8055 112.598 46.8541 112.467 46.9303 112.351C47.0065 112.235 47.1081 112.139 47.2274 112.068C47.3467 111.998 47.4804 111.956 47.6185 111.945C47.9012 111.961 48.1779 112.033 48.4318 112.158C48.6858 112.284 48.9117 112.459 49.0959 112.674C49.4737 113.11 49.9135 113.487 50.4012 113.795C50.9062 114.049 51.591 114.013 51.8789 113.528C52.1492 113.072 51.964 112.462 51.8004 111.933C51.3839 110.586 51.1509 109.189 51.1076 107.78C51.0605 106.207 51.2824 104.566 52.153 103.339C53.2767 101.756 55.286 101.155 57.1875 101.199C59.0891 101.243 60.9597 101.83 62.8433 102.201C63.4935 102.329 64.2578 102.394 64.6927 101.89C65.1552 101.354 64.9853 100.487 64.7886 99.7635C64.2782 97.886 63.7367 95.9448 62.5508 94.4285C61.2686 92.8529 59.4369 91.8217 57.4248 91.5425C55.493 91.3032 53.532 91.5259 51.7031 92.1921C48.7232 93.1313 46.1012 94.958 44.1876 97.4278C42.215 100.054 41.3626 103.355 41.8168 106.608C42.2606 109.442 43.762 112.002 46.0184 113.772L46.8295 113.143Z" fill="#2F2E41"/>
<path d="M179.041 247.695C176.264 246.485 173.806 244.647 171.861 242.324C169.915 240.002 168.537 237.259 167.833 234.313C167.13 231.366 167.121 228.297 167.806 225.346C168.492 222.395 169.855 219.644 171.786 217.311C169.547 218.945 167.681 221.038 166.313 223.449C164.944 225.86 164.104 228.534 163.848 231.295C163.592 234.055 163.926 236.839 164.828 239.46C165.73 242.082 167.179 244.482 169.08 246.5C170.98 248.519 173.288 250.11 175.85 251.169C178.412 252.227 181.17 252.728 183.941 252.639C186.712 252.55 189.433 251.873 191.922 250.653C194.411 249.432 196.612 247.696 198.379 245.559C195.623 247.573 192.387 248.831 188.995 249.205C185.602 249.58 182.17 249.059 179.041 247.695Z" fill="#3F3D56"/>
</svg>
